<svg id="Layer_1" data-name="Layer 1" xmlns="http://www.w3.org/2000/svg" viewBox="0 0 48 48"><title>Forest</title><path d="M46,28a5,5,0,0,1-5,5H38v7a1,1,0,0,1-1,1H33a1,1,0,0,1-1-1V35.75A7.954,7.954,0,0,0,36.23,33a8.039,8.039,0,0,0,1.52-3A8.239,8.239,0,0,0,38,28a7.989,7.989,0,0,0-1.22-4.24,7.456,7.456,0,0,0,.34-2.26,7.553,7.553,0,0,0-2.13-5.24A2.26,2.26,0,0,0,35,16a7.021,7.021,0,0,0-3.81-6.23A4,4,0,0,1,39,11a3.657,3.657,0,0,1-.13,1H39a3.992,3.992,0,0,1,3.7,5.51,4.483,4.483,0,0,1,1.53,6.68A4.988,4.988,0,0,1,46,28Z" id="id_101" style="fill: rgb(61, 138, 28);"></path><path d="M34.506,24.039a5.506,5.506,0,0,0-1.622-6.97A5,5,0,0,0,29,11.1V11a5,5,0,0,0-10,0v.1A5.008,5.008,0,0,0,15,16a4.954,4.954,0,0,0,.117,1.076,5.506,5.506,0,0,0-1.618,6.967A6,6,0,0,0,18,34h3v7a1,1,0,0,0,1,1h4a1,1,0,0,0,1-1V34h3a6,6,0,0,0,4.506-9.961Z" id="id_102" style="fill: rgb(132, 199, 66);"></path><path d="M16,35.75V40a1,1,0,0,1-1,1H11a1,1,0,0,1-1-1V33H7a5,5,0,0,1-3.23-8.81,4.489,4.489,0,0,1,1.52-6.68A3.992,3.992,0,0,1,8.99,12h.14A3.657,3.657,0,0,1,9,11a4,4,0,0,1,7.81-1.23A7,7,0,0,0,13,16v.27a7.482,7.482,0,0,0-1.78,7.49A7.989,7.989,0,0,0,10,28a8.262,8.262,0,0,0,.06,1A8.076,8.076,0,0,0,16,35.75Z" id="id_103" style="fill: rgb(60, 140, 26);"></path></svg>